<svg xmlns="http://www.w3.org/2000/svg" viewBox="0 0 83.15 78.82">
  <path fill="#9655ff" d="M0,41.92V1.98h17.12v5.62c2.31-1.62,4.82-2.99,7.53-4.1.53-.23,1.07-.44,1.6-.63,2.62-.99,5.39-1.71,8.27-2.17,2.26-.41,4.61-.65,7.06-.7,2.42.05,4.77.29,7.04.7,2.88.45,5.65,1.18,8.27,2.17.54.19,1.07.41,1.6.63,2.7,1.1,5.21,2.47,7.53,4.1V1.98h17.11v39.94l-.03,2.22v1.85c-.1,6.41-1.21,12.21-3.27,17.45-.49,1.25-1.02,2.44-1.62,3.59-2.01,4.01-4.6,7.51-7.77,10.56-.43.41-.87.81-1.32,1.2,3.94-6.32,6.26-14.06,6.26-22.41,0-21.35-14.71-35.73-33.39-35.73S7.75,35.03,7.75,56.38c0,8.37,2.33,16.12,6.29,22.44-.46-.4-.91-.81-1.36-1.23-3.16-3.04-5.75-6.54-7.76-10.56-.6-1.15-1.13-2.35-1.62-3.59C1.23,58.2.13,52.4.03,45.99c-.02-.34-.02-.68-.02-1.04l-.02-3.03Z"/>
  <path fill="#fef5bc" d="M48.6,39.24l-28.29,29.93c-2.01-3.74-3.15-8.06-3.15-12.65,0-2.1.24-4.13.69-6.08h10.09v-11.19h20.67Z"/>
  <path fill="#fef5bc" d="M66.54,56.52c0,1.69-.15,3.34-.45,4.94h-10.38v10.95h-21.79l28.6-30.06c2.55,4.07,4.03,8.93,4.03,14.16"/>
</svg>
